# Blender v2.67 (sub 0) OBJ File: ''
# www.blender.org
mtllib Char.mtl
o Steve_RLeg
v 0.395315 5.181234 3.315112
v -0.439126 5.190020 3.305054
v 0.385711 4.272291 3.317926
v -0.448730 4.281076 3.307867
v -0.410329 5.182299 0.909472
v -0.419933 4.273357 0.912286
v 0.424112 5.173515 0.919531
v 0.414508 4.264572 0.922345
v -0.417274 2.797883 0.909360
v 0.417274 2.797883 0.000361
v -0.417274 2.797883 0.000361
v 0.417274 2.797883 0.909360
v -0.417274 0.402117 0.909359
v -0.417274 0.402117 0.000361
v 0.417274 0.402117 0.000361
v 0.417274 0.402117 0.909359
v 0.417274 5.189005 0.931063
v -0.417274 5.189005 -0.905287
v -0.417274 5.189005 0.931064
v 0.417274 5.189005 -0.905288
v -0.417274 2.793237 0.931064
v -0.417274 2.793238 -0.905288
v 0.417274 2.793238 -0.905288
v 0.417274 2.793237 0.931063
v 0.417274 2.797883 -0.002112
v -0.417274 2.797884 -0.911109
v -0.417274 2.797883 -0.002112
v 0.417274 2.797884 -0.911110
v -0.417274 0.402117 -0.911110
v -0.417274 0.402117 -0.002111
v 0.417274 0.402117 -0.911110
v 0.417274 0.402117 -0.002112
v 0.395315 5.181234 -0.881403
v -0.439126 5.190020 -0.891462
v 0.385711 4.272291 -0.878590
v -0.448730 4.281077 -0.888649
v -0.410329 5.182300 -3.287043
v -0.419933 4.273357 -3.284230
v 0.424112 5.173515 -3.276984
v 0.414508 4.264572 -3.274170
v -0.800000 6.779228 0.805260
v 0.799999 6.789780 -0.794705
v -0.800000 6.789779 -0.794705
v 0.800000 6.779228 0.805260
v -0.800000 5.179262 0.794707
v -0.800000 5.189815 -0.805258
v 0.800000 5.189815 -0.805258
v 0.800000 5.179263 0.794707
v -0.800000 6.779228 0.805260
v 0.800000 5.179263 0.794707
v 0.800000 6.779228 0.805260
v -0.800000 5.179262 0.794707
vt 0.759154 0.385918
vt 0.810749 0.385914
vt 0.759676 0.499733
vt 0.811271 0.499729
vt 0.691885 0.002077
vt 0.748349 0.364560
vt 0.693041 0.364662
vt 0.747193 0.001975
vt 0.697119 0.006768
vt 0.750468 0.372475
vt 0.692350 0.372208
vt 0.755237 0.007035
vt 0.690567 0.378607
vt 0.688849 0.009758
vt 0.752226 0.003554
vt 0.753944 0.372404
vt 0.689552 0.364713
vt 0.688950 0.008460
vt 0.756093 0.006957
vt 0.756694 0.363210
vt 0.749289 0.500739
vt 0.686282 0.500739
vt 0.686919 0.378174
vt 0.749925 0.378174
vt 0.123284 0.495731
vt 0.063538 0.374441
vt 0.124564 0.372844
vt 0.062259 0.497328
vt 0.190639 -0.001314
vt 0.190639 0.367806
vt 0.250211 0.370491
vt 0.250211 0.001371
vt 0.059514 0.377727
vt 0.059514 0.009620
vt 0.000807 0.009620
vt 0.000807 0.377727
vt 0.062985 0.373364
vt 0.000878 0.010074
vt 0.062985 0.010074
vt 0.000878 0.373364
vt 0.065375 0.003473
vt 0.125158 0.375770
vt 0.065586 0.375905
vt 0.124947 0.003338
vt 0.129081 0.397994
vt 0.177758 0.401205
vt 0.179068 0.489942
vt 0.130391 0.486732
vt 0.314588 0.373515
vt 0.439419 0.501069
vt 0.313044 0.494516
vt 0.440962 0.380069
vt 0.508958 0.000506
vt 0.505681 0.370022
vt 0.622224 0.375264
vt 0.625501 0.005748
vt 0.441207 0.370784
vt 0.441206 -0.005172
vt 0.500000 -0.005172
vt 0.500000 0.370784
vt 0.249632 0.373364
vt 0.309159 -0.002509
vt 0.249632 -0.002509
vt 0.309159 0.373364
vt 0.438887 0.000239
vt 0.312738 0.372217
vt 0.312738 0.000239
vt 0.438887 0.372217
vt 0.185427 0.380179
vt 0.183671 0.494358
vt 0.129334 0.382434
vt 0.127578 0.496613
vt 0.062175 0.489947
vt 0.122711 0.377515
vt 0.122790 0.486939
vt 0.062097 0.380523
vt 0.187955 0.370491
vt 0.187955 -0.001314
vt 0.250211 0.373175
vt 0.125900 0.370784
vt 0.125900 0.000071
vt 0.187525 0.000071
vt 0.187524 0.370784
vt 0.058530 0.367886
vt 0.003760 -0.002275
vt 0.065964 -0.002528
vt -0.003674 0.368140
vt 0.122484 0.003935
vt 0.068050 0.365241
vt 0.068050 0.003935
vt 0.122484 0.365241
vt 0.130335 0.384604
vt 0.186982 0.384604
vt 0.185797 0.496086
vt 0.129150 0.496087
vt 0.748748 0.495561
vt 0.689934 0.495565
vt 0.748153 0.380419
vt 0.689339 0.380423
vt 0.753152 0.375250
vt 0.693834 0.001912
vt 0.747501 0.008395
vt 0.691096 0.377156
vt 0.691833 0.375361
vt 0.749856 -0.002147
vt 0.690080 0.003953
vt 0.751610 0.369261
vt 0.748819 0.000058
vt 0.748819 0.369061
vt 0.688328 0.374991
vt 0.688328 0.005988
vt 0.751165 0.000589
vt 0.752404 0.365834
vt 0.688839 0.369572
vt 0.687600 0.004327
vt 0.759715 0.389343
vt 0.814246 0.387968
vt 0.813120 0.496101
vt 0.757901 0.498796
vt 0.125829 0.999911
vt 0.249146 0.755974
vt 0.249112 0.999932
vt 0.125457 0.755906
vt 0.375900 0.503487
vt 0.376673 0.749269
vt 0.500024 0.502517
vt 0.500661 0.750006
vt 0.369216 0.991808
vt 0.253952 0.761856
vt 0.369216 0.761856
vt 0.253952 0.991808
vt 0.002091 0.753476
vt 0.123832 0.501264
vt 0.124180 0.750315
vt 0.001326 0.503335
vt 0.126238 0.747512
vt 0.250780 0.503290
vt 0.251113 0.748845
vt 0.125687 0.503316
vt 0.374877 0.506418
vt 0.250104 0.747256
vt 0.249306 0.504219
vt 0.374931 0.749621
vn -0.012019 0.003223 0.999923
vn -0.012020 0.003222 0.999923
vn -0.999872 0.010527 -0.012054
vn 0.010564 0.999939 -0.003096
vn 0.010566 0.999939 -0.003095
vn -0.010566 -0.999939 0.003095
vn -0.010565 -0.999939 0.003095
vn 0.999872 -0.010527 0.012053
vn 0.012020 -0.003222 -0.999923
vn -0.000000 1.000000 0.000000
vn -1.000000 -0.000000 -0.000000
vn -1.000000 -0.000000 0.000001
vn 0.000000 0.000000 -1.000000
vn 0.000001 -0.000000 1.000000
vn 0.000000 -0.000000 1.000000
vn 1.000000 0.000000 -0.000001
vn 1.000000 0.000000 0.000000
vn -0.000000 -1.000000 -0.000000
vn -0.000001 0.000000 -1.000000
vn -0.000000 0.999978 0.006595
vn 0.000001 -0.999978 -0.006595
vn 0.000000 -0.999978 -0.006596
vn 0.000000 -0.006595 0.999978
vn 1.000000 0.000001 -0.000001
vn 0.000000 0.006595 -0.999978
usemtl Steve
s off
f 1/1/1 2/2/1 3/3/1
f 2/2/2 4/4/2 3/3/2
f 4/5/3 5/6/3 6/7/3
f 5/6/3 4/5/3 2/8/3
f 2/9/4 7/10/4 5/11/4
f 2/9/5 1/12/5 7/10/5
f 8/13/6 3/14/6 4/15/6
f 4/15/7 6/16/7 8/13/7
f 7/17/8 1/18/8 3/19/8
f 3/19/8 8/20/8 7/17/8
f 8/21/9 6/22/9 5/23/9
f 8/21/9 5/23/9 7/24/9
f 9/25/10 10/26/10 11/27/10
f 10/26/10 9/25/10 12/28/10
f 13/29/11 9/30/11 11/31/11
f 13/29/12 11/31/12 14/32/12
f 10/33/13 15/34/13 14/35/13
f 14/35/13 11/36/13 10/33/13
f 12/37/14 13/38/14 16/39/14
f 12/37/15 9/40/15 13/38/15
f 16/41/16 10/42/16 12/43/16
f 10/42/17 16/41/17 15/44/17
f 16/45/18 13/46/18 14/47/18
f 16/45/18 14/47/18 15/48/18
f 17/49/10 18/50/10 19/51/10
f 18/50/10 17/49/10 20/52/10
f 21/53/11 19/54/11 18/55/11
f 21/53/11 18/55/11 22/56/11
f 20/57/13 23/58/13 22/59/13
f 22/59/19 18/60/19 20/57/19
f 17/61/14 21/62/14 24/63/14
f 21/62/14 17/61/14 19/64/14
f 23/65/17 17/66/17 24/67/17
f 17/66/17 23/65/17 20/68/17
f 21/69/18 22/70/18 24/71/18
f 24/71/18 22/70/18 23/72/18
f 25/73/10 26/74/10 27/75/10
f 26/74/10 25/73/10 28/76/10
f 27/77/12 29/32/12 30/78/12
f 29/32/11 27/77/11 26/79/11
f 28/80/13 31/81/13 29/82/13
f 29/82/19 26/83/19 28/80/19
f 25/84/14 30/85/14 32/86/14
f 30/85/15 25/84/15 27/87/15
f 31/88/17 25/89/17 32/90/17
f 25/89/16 31/88/16 28/91/16
f 32/92/18 30/93/18 29/94/18
f 32/92/18 29/94/18 31/95/18
f 33/96/2 34/97/2 35/98/2
f 34/97/2 36/99/2 35/98/2
f 36/100/3 37/101/3 38/102/3
f 37/101/3 36/100/3 34/103/3
f 34/104/4 39/105/4 37/106/4
f 34/104/5 33/107/5 39/105/5
f 40/108/6 35/109/6 36/110/6
f 36/110/7 38/111/7 40/108/7
f 39/112/8 33/113/8 35/114/8
f 35/114/8 40/115/8 39/112/8
f 40/116/9 38/117/9 37/118/9
f 40/116/9 37/118/9 39/119/9
f 41/120/20 42/121/20 43/122/20
f 42/121/20 41/120/20 44/123/20
f 45/124/11 41/125/11 46/126/11
f 41/125/11 43/127/11 46/126/11
f 45/128/21 47/129/21 48/130/21
f 47/129/22 45/128/22 46/131/22
f 49/132/23 50/133/23 51/134/23
f 50/133/23 49/132/23 52/135/23
f 44/136/24 47/137/24 42/138/24
f 47/137/17 44/136/17 48/139/17
f 46/140/25 42/141/25 47/142/25
f 42/141/25 46/140/25 43/143/25
